<?xml version="1.0" encoding="UTF-8" standalone="no"?>
<!-- Created with Inkscape (http://www.inkscape.org/) -->

<svg
   width="56.77586mm"
   height="79.893494mm"
   viewBox="0 0 56.77586 79.893492"
   version="1.1"
   id="svg1"
   xml:space="preserve"
   inkscape:version="1.4.2 (ebf0e940d0, 2025-05-08)"
   sodipodi:docname="logo_down.svg"
   xmlns:inkscape="http://www.inkscape.org/namespaces/inkscape"
   xmlns:sodipodi="http://sodipodi.sourceforge.net/DTD/sodipodi-0.dtd"
   xmlns="http://www.w3.org/2000/svg"
   xmlns:svg="http://www.w3.org/2000/svg"><sodipodi:namedview
     id="namedview1"
     pagecolor="#ffffff"
     bordercolor="#000000"
     borderopacity="0.25"
     inkscape:showpageshadow="2"
     inkscape:pageopacity="0.0"
     inkscape:pagecheckerboard="0"
     inkscape:deskcolor="#d1d1d1"
     inkscape:document-units="mm"
     inkscape:zoom="1.4652129"
     inkscape:cx="17.403614"
     inkscape:cy="251.49929"
     inkscape:window-width="2560"
     inkscape:window-height="1371"
     inkscape:window-x="0"
     inkscape:window-y="0"
     inkscape:window-maximized="1"
     inkscape:current-layer="layer1"
     showgrid="false" /><defs
     id="defs1" /><g
     inkscape:label="Layer 1"
     inkscape:groupmode="layer"
     id="layer1"
     transform="translate(-149.97768,-98.405219)"><path
       id="path3"
       style="fill:#3cd0ac;fill-opacity:1;stroke:none;stroke-width:0.801605"
       d="m 178.36561,98.405219 a 28.387941,28.387941 0 0 0 -28.38793,28.387921 28.387941,28.387941 0 0 0 11.47682,22.8012 c 2.86063,-2.47552 5.07575,-5.52454 6.90449,-8.91729 0,0 -2.39278,0.3272 -4.17597,-0.15813 -1.78319,-0.48533 -3.4019,-1.60452 -3.41943,-2.17816 -0.0175,-0.57365 5.26101,-1.35281 7.86618,-3.81476 2.43608,-2.30215 4.62353,-7.12576 6.16242,-8.23877 1.53888,-1.11302 3.76928,-0.5979 3.76928,-0.5979 l 9.39012,-9.6609 c 0,0 2.07666,2.43742 2.25723,2.97914 0.18058,0.54174 -0.12413,1.33175 -0.34985,1.76062 -0.22572,0.42887 -1.21835,1.82139 -0.98134,2.49855 0.23701,0.67717 0.76698,1.33876 1.27486,1.3839 0.50787,0.0452 2.04277,-2.0314 2.04277,-2.0314 0,0 0.98159,0.65463 0.66559,1.83968 -0.31601,1.18503 -4.24294,8.7415 -4.46639,10.40143 -0.22346,1.65993 -0.008,5.58635 1.33273,10.39058 0,0 -1.17615,-0.41101 -1.31723,-0.22479 -0.14107,0.18622 0.91014,3.47323 2.20297,4.89376 0,0 -1.80354,-1.06169 -2.09083,-0.71055 -0.20305,0.24816 0.86144,2.29009 1.50327,3.46645 a 28.387941,28.387941 0 0 0 16.72817,-25.88266 28.387941,28.387941 0 0 0 -28.38793,-28.387921 z m -11.59102,6.314331 a 3.2563088,4.6283699 48.537006 0 1 2.04122,0.8351 3.2563088,4.6283699 48.537006 0 1 -1.27176,5.50044 3.2563088,4.6283699 48.537006 0 1 -5.63376,0.66404 3.2563088,4.6283699 48.537006 0 1 1.27175,-5.50044 3.2563088,4.6283699 48.537006 0 1 3.59255,-1.49914 z m -7.30911,8.60878 a 1.9035575,2.8618992 39.175609 0 1 1.23868,0.77825 1.9035575,2.8618992 39.175609 0 1 -1.32033,3.56826 1.9035575,2.8618992 39.175609 0 1 -3.02463,-0.0791 1.9035575,2.8618992 39.175609 0 1 1.32034,-3.56774 1.9035575,2.8618992 39.175609 0 1 1.78594,-0.6997 z"
       inkscape:export-filename="path1.png"
       inkscape:export-xdpi="96"
       inkscape:export-ydpi="96" /><path
       style="font-weight:bold;font-size:26.4382px;line-height:15.7;font-family:Oswald;-inkscape-font-specification:'Oswald Bold';letter-spacing:2.64583px;fill:#3cd0ac;stroke-width:3.32247"
       d="m 150.84043,177.98148 v -21.41495 h 4.73243 v 8.75105 l 3.5956,-8.75105 h 4.62669 l -3.96573,9.67639 4.15079,11.73856 h -4.81175 l -3.09327,-9.46488 -0.50233,0.84602 v 8.61886 z m 17.66271,0 v -21.41495 h 4.73244 v 21.41495 z m 12.50729,0 v -17.89867 h -3.22546 v -3.51628 h 11.18336 v 3.51628 h -3.19902 v 17.89867 z m 18.40301,0.31725 q -2.40588,0 -3.8071,-0.84602 -1.40123,-0.84602 -2.0093,-2.43231 -0.60808,-1.58629 -0.60808,-3.78067 v -7.95789 q 0,-2.22081 0.60808,-3.78067 0.60807,-1.55985 2.0093,-2.37943 1.40122,-0.84603 3.8071,-0.84603 2.43231,0 3.83354,0.84603 1.42766,0.81958 2.03574,2.37943 0.60808,1.55986 0.60808,3.78067 v 7.95789 q 0,2.19438 -0.60808,3.78067 -0.60808,1.58629 -2.03574,2.43231 -1.40123,0.84602 -3.83354,0.84602 z m 0,-3.35765 q 0.74027,0 1.08397,-0.37013 0.34369,-0.37014 0.44945,-0.95178 0.10575,-0.58164 0.10575,-1.18972 v -10.31089 q 0,-0.63452 -0.10575,-1.18972 -0.10576,-0.58164 -0.44945,-0.95178 -0.3437,-0.37013 -1.08397,-0.37013 -0.68739,0 -1.03109,0.37013 -0.3437,0.37014 -0.44945,0.95178 -0.10575,0.5552 -0.10575,1.18972 v 10.31089 q 0,0.60808 0.0793,1.18972 0.10576,0.58164 0.42301,0.95178 0.3437,0.37013 1.08397,0.37013 z"
       id="text4"
       aria-label="KITO" /></g></svg>
